<?xml version="1.0" encoding="utf-8"?>
<!-- Generator: Adobe Illustrator 26.1.0, SVG Export Plug-In . SVG Version: 6.00 Build 0)  -->
<svg version="1.1" id="Layer_1" xmlns="http://www.w3.org/2000/svg" xmlns:xlink="http://www.w3.org/1999/xlink" x="0px" y="0px"
	 viewBox="0 0 260.73685 359.26315" style="enable-background:new 0 0 260.73685 359.26315;" xml:space="preserve">
<style type="text/css">
	.st0{fill:#FFD60A;}
</style>
<g>
	<path class="st0" d="M170.73685,10h19.39819c33.41602,0,60.60181,27.18585,60.60181,60.60181v39.39813h10V70.60181
		C260.73685,31.6095,229.12735,0,190.13504,0h-19.39819V10z"/>
	<path class="st0" d="M10.73684,109.99994V70.60181C10.73684,37.18585,37.9227,10,71.33865,10h19.39819V0H71.33865
		C32.34634,0,0.73684,31.6095,0.73684,70.60181v39.39813H10.73684z"/>
	<path class="st0" d="M250.73685,250v39.39819c0,33.41589-27.18579,60.60181-60.60181,60.60181h-19.39819v10h19.39819
		c38.99231,0,70.60181-31.6095,70.60181-70.60181V250H250.73685z"/>
	<path class="st0" d="M90.73684,350H71.33865c-33.41595,0-60.6018-27.18591-60.6018-60.60181V250h-10v39.39819
		C0.73684,328.3905,32.34634,360,71.33865,360h19.39819V350z"/>
</g>
</svg>
